<?xml version="1.0" encoding="utf-8"?>
<!-- Generator: Adobe Illustrator 22.1.0, SVG Export Plug-In . SVG Version: 6.00 Build 0)  -->
<svg version="1.1" id="Layer_1" xmlns="http://www.w3.org/2000/svg" xmlns:xlink="http://www.w3.org/1999/xlink" x="0px" y="0px"
	 viewBox="0 0 534 442" style="enable-background:new 0 0 534 442;" xml:space="preserve">
<style type="text/css">
	.st0{fill:#F9A47D;}
	.st1{fill:#7F1100;}
	.st2{fill:#4A5159;}
	.st3{fill:#3F3D55;}
	.st4{fill:#FFDF8B;}
	.st5{fill:#3BBA9B;}
	.st6{fill:#BFBEBF;}
	.st7{fill:#E45841;}
	.st8{fill:#323142;}
	.st9{fill:#FFCDAD;}
	.st10{fill:#F6F5F5;}
	.st11{fill:#ECEDEE;}
	.st12{fill:#894445;}
	.st13{fill:#CBCBCB;}
	.st14{fill:#FF7139;}
	.st15{fill:#525462;}
	.st16{fill:#F6F6F6;}
</style>
<path class="st0" d="M290,412c0,0,10-74,14-137l-40,21l-1.8,14c0,0,1.8,7-1.3,10c0,0,10,87,7,99C268,419,288,417,290,412z"/>
<g>
	<path class="st1" d="M136,34c0.6-1.9,2.2-4.1,2.8-6c0.1-0.3,0.3-0.6,0.4-0.9c3.4-4.1,9.7-8,14.8-10.1c0,0,20-9,47,1
		c7.1,2.6,12.9,11.1,13.3,18.1C214.8,47,218,58,215.1,69c-0.4,1.6-0.3,3.4-2.2,4.1c-0.7-5.1,0-10.3-1.6-15.4c-1.2-4-2.2-6.6-7.6-6.7
		c-9.5-0.3-18.3-4.6-27.6-6.3c-13.1-2.5-17.6-0.4-24,11c-1.1,1.9-2.2,3.7-3.6,5.3c-1.6,1.9-3.7,4.5-4.6-0.7c-0.3-1.5-1.3-3-2.9-3
		c-1.9-0.1,73.4,13.9,73,15.6c-1.6,6.5-6.9,44.6-5,51c0.4,1.4-80.2,21.7-80,23c-6.4-7.8,2.1-80.3,1.9-90c1-6.3,1.2-13.2,4.1-19"/>
	<path class="st0" d="M187.1,108.9c0,3.5-0.3,6.9-2.7,9.8c-3.2,3.9-10.1,6.3-14.1,4c-4.6-2.6-8.3-6.5-7.4-12.7
		c0.6-3.9-0.2-6.4-4.5-8.4c-8.2-3.8-14.5-10.1-19.3-17.7c-0.2-1.3,0-2.5-0.4-3.8c-1.9-6.4-2.4-12.9-0.8-19.4
		c0.4-1.7,1.3-3.3,3.2-3.2c1.6,0.1,2.6,1.5,2.9,3c0.9,5.2,3,2.5,4.6,0.7c1.4-1.6,2.6-3.5,3.6-5.3c6.4-11.5,10.9-13.5,24-11
		c9.3,1.7,18.1,6.1,27.6,6.3c5.4,0.2,6.3,2.8,7.6,6.7c1.6,5.1,0.9,10.3,1.6,15.4c1.3,5.1-3.2,8-4.9,11.9c-3.3,7.6-9.3,13.3-17,16.7
		C187.4,103.3,186.2,105.3,187.1,108.9z"/>
	<path class="st2" d="M1,396c3.9-7.4,9.2-12.9,17.9-14c8,0,16.1,0,24.1,0c0.6,0,1.2,0,1.9,0c10.1,0.1,20.2,0.3,30.3,0.4
		c11.3,2.5,17.8,10.9,16.7,21.3C90.8,414,82.5,420.9,71,421c-15.2,0-30.3-0.5-45.5,0.2c-12,0.5-20.2-3.8-24.5-15.1
		C1,402.7,1,399.3,1,396z"/>
	<path class="st3" d="M265,294.2c-0.1-3.9-1.2-5.3-5-5.2c-3.1,0.1-6.3-0.5-10.3-0.8"/>
	<path class="st4" d="M257,300l47.9-25.3c-1.4-9.1-3.3-18.4-13.2-22.5c-11.7-4.8-23.6-9-35.4-13.4c-2.3-1.3-5.3-1.2-7.4-3.1
		c-8.5-0.8-16.7-3.8-25.3-3.7c-2.2,0-1.3-1.8-1.6-2.9c-31.3-0.1-62.7-0.1-94-0.2c-0.2,1-0.4,1.9-0.5,2.9c-0.8,12,2.3,22.9,8.7,33
		c7.1,6.6,14.4,13.4,24.3,14.2c8.1,0.7,12.9,5.7,18.6,10c1.9,0,2,1.4,2.1,2.8c3.9,1.2,6.4,4.2,9.2,6.9c3,1.4,5.2,3.8,7.7,5.8
		c5.5,4.4,11,9,16.6,13.3c2.2,1.7,2.3,3,0.8,5.2"/>
	<path class="st3" d="M263,321c0,0,1.1-1.9,0.6-10.5"/>
	<path class="st5" d="M43.1,382c-8,0-16.1,0-24.1,0c-10.4-14.5-10-29.8-2.7-45.2c6.9-14.6,16.9-27,28.1-38.5
		c1.2-1.3,2.2-2.6,3.9-0.7c14,15,27.5,30.4,32.7,51c2.8,11.1,1,21.8-5.2,31.6c-0.5,0.7-0.9,1.4-0.5,2.3c-10.1-0.1-20.2-0.3-30.3-0.4
		c1-5.6-1.4-11.4,1.1-16.9c1.4-1.6,3.3-3.1,2.6-5.6c-1.6-0.4-1.7,1.3-2.8,1.6c0.3-7.7,0.5-15.4-0.2-23.1c0.9-3.8,0.8-7.9,4.2-10.8
		c0.9-0.8,1.1-1.9,1-3.1c0.2-0.2,0.3-0.3,0.5-0.5c-0.1,0-0.3,0-0.3,0.1c-0.1,0.1-0.1,0.3-0.2,0.4c-1.4,1.2-2.7,2.3-4.1,3.5
		c-0.1-0.4-0.3-0.9-0.4-1.3c0-0.7-0.1-1.4-0.1-2.1c0.9-6.5,0.3-12.9,0-19.4c0.7,6.5-1.7,12.9-0.9,19.4c-1.1,3.9,0.8,8.3-1.5,12.1
		c-0.9-1.4-1.4-3.2-3-4.1c-0.2-1.2-0.4-2.5-2.3-2.7c0.6,1.2,0.8,2.6,2.4,2.6c2.6,6.5,5.4,13,3.9,20.3l-0.2,0.2l0.2,0.2
		c-0.6,1.9-0.7,3.7-0.2,5.6c-3.1,1.1-2.7,2.8-0.7,4.7C44.3,369.3,42.2,375.6,43.1,382z"/>
	<path class="st6" d="M209,333c-0.9,2-2,3.9-3.6,5.3c-2-4.6-4.1-9.1-5.9-13.7c-0.8-2.1-1.8-3.3-4-3.9c-6.9-2-13.7-4.1-20.5-6.2
		c-1.8-0.6-3.6-0.7-5.4-0.2c-7.2,2.2-14.3,4.5-21.5,6.5c-3.4,1-3.9,3.8-4.9,6.3c-9.1,23.4-18.1,46.8-27.1,70.3
		c-0.6,1.6-0.6,4-3.4,3.3c-3.5-0.8-2.1-3.2-1.3-5.1c4.7-12.3,9.5-24.5,14.2-36.7c8.3-21.6,16.6-43.1,24.9-64.7
		c0.3-0.9,0.3-1.9,0.4-2.9c1.3,0,2.7-0.1,4-0.1c0.4,0.3,0.8,0.6,1.1,1c0.3,2.8-1.7,4.9-2.3,7.5c-0.3,1.3-1.3,2.7,0.7,3.2
		c8.4,2,16.5,7.4,25.7,3c2.2-1,4.6-1.9,7-2.3c3.2-0.5,3.4-2.4,3.2-4.8c3,1.4,5.2,3.8,7.7,5.8C200.4,314.5,204.1,324,209,333z
		 M162.7,310.6c-13.2-3.8-13.3-3.8-13.9,4.5C153.4,313.9,157.8,312.8,162.7,310.6z M180.5,310.6c4.9,1.6,8.4,2.8,11.8,3.9
		c2.5,0.8,3-0.5,2.5-2.6c-0.8-3-1.6-5.9-5.9-3.9C186.7,309.1,184.2,309.5,180.5,310.6z"/>
	<path class="st7" d="M154.8,291.1c-1.3,0-2.7,0.1-4,0.1c-10-1.2-20-2.8-29.1-7.5c-2.9-1.5-5.6-3.4-5.6-7c0-3.6,2.6-5.7,5.5-7.1
		c4.6-2.1,9.2-4.5,14.5-4.8c7.1,6.6,14.4,13.4,24.3,14.2c8.1,0.7,12.9,5.7,18.6,10c-0.3,2.9-2.6,2-4.3,2
		C168.1,291.1,161.5,291.1,154.8,291.1z"/>
	<path class="st8" d="M163,407.9c0,1.5,0.7,2.8,2.1,2.9c6.9,0.5,13.1,3.7,19.6,5.2c-0.2,1.3-0.4,2.6-0.6,3.9c-0.4,2,0.2,2.7,2.3,2.3
		c2.3-0.4,4.6-0.1,6.9,0.4c8.7,1.8,10.5,4.9,7.6,13.4c-14.9-1.2-29.6-4.2-44-8.2c-2-0.6-3.4-1.9-4.7-3.5c-0.6-5.3,2.9-8.6,6-12
		C159.8,410.8,161.4,409.4,163,407.9z"/>
	<path class="st6" d="M218,374c1.3-2,3-3.6,4.9-5c2.7,6.7,7.4,21.4,10.1,28.1c0.5,1.3,1,2.4-1,3c-1.8,0.6-3.1,0.9-3.9-1.3
		c-1.7-4.5-3.4-8.9-5.1-13.4C222.4,384,220.2,374.1,218,374z"/>
	<path class="st1" d="M488.2,197.7c-6.5,0-13-0.1-19.5-0.1c-4.2-1.1-5.7-4-5.7-8.2c0.1-7.1,0.1-14.3,0-21.4c0-2.7,0.8-3.9,3.7-3.8
		c7.5,0.1,14.9,0,22.4,0c1.2,0,3.4-0.4,3.4,1.1c-0.1,4.5,3.2,5.7,6,7.9c3.6,2.8,2.1,9.1-2.7,11.5c-2,1-3.3,2-3,4.4
		C493.4,193.2,491.5,195.9,488.2,197.7z M494.4,173.7c-1.6-0.3-1.6,0.9-1.4,1.8c0.4,2.1-1.6,5.2,1.5,6.3c1.6,0.5,2.6-1.6,2.7-3.4
		C497.3,176.2,496.6,174.5,494.4,173.7z"/>
	<path class="st9" d="M473.6,141.9c5.6,0.1,10.6,2.3,15.1,4.8c3,1.6,3.2,4.3,1.6,8.7c-2.5,6.9-9.3,3.2-12.7,7.1
		c-0.5,0.6-6-1.9-8-4.6c-1.8-2.6,0.6-3.8,2.1-5.2c2.1-1.9,0.8-3.4-0.6-5.1c-1.1-1.3-3.6-2.1-2.5-4.3
		C469.7,141.2,472,142.3,473.6,141.9z"/>
	<path class="st0" d="M301,125c-3.7,1.1-6.5-2.4-10-2.1c0.6-6.1,3.7-11.2,7-16.1c0.9-1.4,2.3-2.7,4.1-2.1c2,0.6,2.7,2.4,2.8,4.3
		C305.6,114.8,304.3,120.2,301,125z"/>
	<path class="st3" d="M320,124c2.1,2.5-0.1,5-0.1,7.6c0.2,17.3,0.1,34.5,0.2,51.8c0,3.1,0.7,6.2,1.3,9.3c0.3,1.6-0.1,2.2-1.5,2.3
		c-1.8-6-1.6-12.1-1.6-18.3c0-15.8,0-31.6,0.1-47.5C318.4,127.4,317.5,125.1,320,124z"/>
	<path class="st0" d="M261,190.8c1.3,0.1,2.6,0.2,3.9,0.2c2.7,1,5.5,2.1,8.2,3.1c0.2,2.8-1.6,2.9-3.8,3.1c-4.7,0.3-8.7-0.6-13.3,0.8
		c-0.9,0-2.5-0.2-3.4-0.2c-2-1.5-2.2-3.6-1.3-5.7c0.2-0.5,0.7-0.8,1.5-1C255.2,190.4,259.6,190.8,261,190.8z"/>
	<path class="st6" d="M260,164c-0.2,1.6,0.5,3.7-1.4,4.4c-2.1,0.7-2.8-1.7-3.4-2.9c-2.3-4-6.3-7.3-6.2-12.6
		C253,156.3,256.7,160,260,164z"/>
	<path class="st10" d="M221.9,229.1c0-6,0.1-12,0.1-18c10.3-0.1,20.6-0.1,31-0.3c2.8,0,3.4,0.7,2.5,3.5c-2.4,7.1-4.4,14.3-6.6,21.4
		c-8.5-0.8-16.7-3.8-25.3-3.7C221.4,232,222.3,230.2,221.9,229.1z"/>
	<path class="st11" d="M46.1,365c-2.5,5.5-0.1,11.3-1.1,16.9c-0.6,0-1.2,0-1.9,0c-0.9-6.4,1.2-12.6,0.9-19
		C46.1,362.2,45.6,364.1,46.1,365z"/>
	<path class="st10" d="M190.3,298.7c0.2,2.5,0,4.3-3.2,4.8c-2.4,0.4-4.8,1.3-7,2.3c-9.2,4.4-17.3-1-25.7-3c-2-0.5-1-2-0.7-3.2
		c0.5-2.6,2.6-4.7,2.3-7.5c8.4-0.3,16.8,0.6,25.2-0.3C185,292.9,187.6,295.9,190.3,298.7z"/>
	<path class="st11" d="M209,333c-4.9-9-8.6-18.5-10.9-28.5c5.5,4.4,11,9,16.6,13.3c2.2,1.7,2.3,3,0.8,5.2
		C213.1,326.2,211.1,329.7,209,333z"/>
	<path class="st12" d="M181.1,291.8c-8.4,0.9-16.8,0-25.2,0.3c-0.4-0.3-0.8-0.6-1.1-1c6.7,0,13.3,0,20-0.1c1.6,0,3.9,0.9,4.3-2
		C181,289,181.1,290.3,181.1,291.8z"/>
	<path class="st10" d="M251.1,189c-0.4,0-0.7,0.1-1.1,0.1c-8.4-2.4-16.9-4.9-25.3-7.2c-2.3-0.6-2.7-2.1-2.7-4.1c0-6.3,0-12.6,0-20.5
		c5.1,5.2,9.4,9.4,13.5,13.7c4.7,4.9,9.3,9.9,13.9,14.9C250.2,186.9,250.6,188,251.1,189z"/>
	<path class="st11" d="M44.7,358.3c-0.5-1.9-0.3-3.8,0.2-5.6c0,0,0-0.4,0-0.4c1.5-7.3-1.3-13.8-3.9-20.3L41,332
		c1.7,0.9,2.1,2.6,3,4.1c0.6,0.6,1.2,1.2,1.8,1.8c0.7,7.7,0.5,15.4,0.2,23.1C45.5,360.1,45.1,359.2,44.7,358.3z"/>
	<path class="st13" d="M45.8,337.9c-0.6-0.6-1.2-1.2-1.8-1.8c2.2-3.8,0.3-8.1,1.4-12.1c0.3,0,0.6,0,0.9,0c0,0.7,0.1,1.4,0.1,2.1
		c-0.4,0.7-0.9,1.4,0,2.1c0.1-0.3,0.3-0.5,0.4-0.8c1.4-1.2,2.7-2.3,4.1-3.5c0,0,0,0,0,0c0.1,1.2-0.1,2.3-1,3.1
		C46.6,330,46.7,334.1,45.8,337.9z"/>
	<path class="st6" d="M46.4,324c-0.3,0-0.6,0-0.9,0c-0.8-6.5,1.6-12.9,0.9-19.4C46.7,311.1,47.3,317.6,46.4,324z"/>
	<path class="st13" d="M44.7,358.3c0.4,0.9,0.9,1.8,1.3,2.7c1-0.3,1.2-2,2.8-1.6c0.6,2.6-1.2,4-2.6,5.6c-0.5-0.9,0-2.9-2.1-2.1
		C42,361.1,41.6,359.4,44.7,358.3z"/>
	<path class="st11" d="M41,332c-1.6,0-1.8-1.4-2.4-2.6C40.6,329.5,40.7,330.8,41,332C41,332,41,332,41,332z"/>
	<path class="st6" d="M46.9,327.5c-0.1,0.3-0.3,0.5-0.4,0.8c-0.9-0.7-0.4-1.4,0-2.1C46.6,326.6,46.8,327,46.9,327.5z"/>
	<path class="st13" d="M51,324c0.1-0.1,0.1-0.3,0.2-0.4c0.1-0.1,0.2,0,0.3-0.1C51.3,323.7,51.2,323.8,51,324C51,324,51,324,51,324z"
		/>
	<path class="st13" d="M44.9,352.3c0,0,0,0.4,0,0.4c0,0-0.2-0.2-0.2-0.2L44.9,352.3z"/>
	<path class="st10" d="M162.7,310.6c-4.9,2.2-9.4,3.3-13.9,4.5C149.5,306.8,149.5,306.8,162.7,310.6z"/>
	<path class="st11" d="M180.5,310.6c3.7-1.1,6.2-1.5,8.4-2.6c4.3-2,5.1,0.9,5.9,3.9c0.5,2.1,0,3.4-2.5,2.6
		C188.9,313.4,185.4,312.3,180.5,310.6z"/>
	<path class="st1" d="M390.5,151.9c2.4,0.4,3.8,1.8,3.6,4.4c-0.2,2.6-1.7,3.9-4.2,3.8c-2.6-0.1-3.9-1.9-3.8-4.3
		C386.3,153.3,388,152.1,390.5,151.9z"/>
	<path class="st11" d="M494.4,173.7c2.2,0.8,2.9,2.5,2.7,4.6c-0.1,1.8-1.1,3.9-2.7,3.4c-3.1-1-1-4.1-1.5-6.3
		C492.8,174.6,492.8,173.4,494.4,173.7z"/>
	<path class="st14" d="M221.9,229.1c-31.3-0.1-62.7-0.1-94-0.2c-1.3-5.7-0.9-11.6-0.9-17.4c0-16.5,0.1-33-0.1-49.4
		c-0.1-8,1.6-15.8,2.2-23.7c0.4-4.3,2.8-8.3,5.7-11.5c7.6-8.4,16.5-14.9,28-16.9c-0.9,6.2,2.8,10.1,7.4,12.7c4,2.3,10.9-0.1,14.1-4
		c2.4-2.9,2.7-6.3,2.7-9.8c12.2-1.5,21.2,4.7,29.5,12.5c11,10.3,22.4,20.2,32.4,31.5c-0.1,5.3,3.8,8.5,6.2,12.6
		c0.7,1.1,1.4,3.6,3.4,2.9c1.9-0.7,1.2-2.8,1.4-4.4c2.8,0,3.3-2.6,4.4-4.2c8.3-11.7,16.5-23.5,24.7-35.2c0.5-0.6,1.2-1.1,1.8-1.7
		c3.5-0.3,6.3,3.2,10,2.1c-11,19.9-22.1,39.8-33.1,59.7c-1.1,2-2,4.2-3,6.3c-1.3-0.1-2.6-0.2-3.9-0.2c-2.8-3.5-6.6-1-9.8-1.8
		c-0.6-1-0.9-2.1-1.7-3c-4.6-5-9.2-10-13.9-14.9c-4.2-4.3-8.4-8.6-13.5-13.7c0,7.9,0,14.2,0,20.5c0,2,0.4,3.4,2.7,4.1
		c8.5,2.3,16.9,4.8,25.3,7.2c-0.2,0.8-0.7,1.6-0.7,2.4c0.4,5.2-2.5,5.6-6.8,5.6c-12.1-0.3-24.3-0.1-36.4-0.1c-1.7,0-3.7-0.7-5.1,1.1
		c0,2.5,0.3,5,0,7.5c-0.7,4.6,1.4,5.6,5.6,5.4c5.1-0.3,10.3,0,15.4,0.1C222,217.1,222,223.1,221.9,229.1z"/>
	<path class="st8" d="M268,419c7.9-1.3,14.3-5.2,22-7c1.1,2.2,3.2,4.4,4.4,6.9c3-1.4,5.5-3.9,8.7-4.9c8-2.7,11.7-0.4,12.9,8
		c-12.3,5.7-24.8,10.8-37.7,14.9c-3,0.9-6,1.7-9.2,0.7c-3.6-3.2-3-7.3-2.3-11.4C267.3,423.8,267.5,421.4,268,419z"/>
	<path class="st12" d="M535,423c-5.8,1.7-7-1.6-8.3-6.5c-18.7-67.1-37.6-134-56.4-201.1c-1-3.6-2.3-4.7-6-4.7
		c-64.9,0.1-129.9,0.1-194.8,0c-3.4,0-5,0.8-5.9,4.2c-2.2,8-4.8,15.9-7.3,23.8c-2.3-1.3-5.3-1.2-7.4-3.1c2.2-7.1,4.2-14.3,6.6-21.4
		c0.9-2.8,0.3-3.5-2.5-3.5c-10.3,0.2-20.6,0.2-31,0.3c-5.1-0.1-10.3-0.4-15.4-0.1c-4.2,0.2-6.3-0.7-5.6-5.4c0.4-2.4,0-5,0-7.5
		c17.2-0.1,34.4-0.3,51.6-0.4c0.9,0,1.8,0,2.7,0c7.9,0.1,15.9,0.3,23.8,0.4c7.9,6.7,17.3,4.7,26.4,4.7c39.1,0.1,78.2-0.1,117.4,0.2
		c7.9,0.1,15.3-0.6,22.1-5c7.9-0.1,15.9-0.3,23.8-0.4c6.5,0,13,0.1,19.5,0.1c13.5,0,27,0.2,40.5,0.1c3.5,0,4.5,0.9,4.4,4.4
		c-0.2,8.6,0,8.6-8.7,8.6c-14.2,0-28.3,0.1-42.5-0.1c-3.7,0-4.5,0.8-3.4,4.5c18.6,65.7,37,131.5,55.5,197.2c0.2,0.7,0.3,1.3,1,1.5
		C535,417,535,420,535,423z"/>
	<path class="st15" d="M444.9,198c-6.7,4.5-14.1,5.1-22.1,5c-39.1-0.2-78.2-0.1-117.4-0.2c-9,0-18.5,2-26.4-4.7c1.3-0.5,3,0.6,4-1.1
		c1.2-1.9,3-2.3,5.1-2.2c10.6,0.1,21.1,0.1,31.7,0.1c1.5-0.2,1.9-0.7,1.5-2.3c-0.7-3.1-1.3-6.2-1.3-9.3c-0.1-17.3,0.1-34.5-0.2-51.8
		c0-2.5,2.2-5,0.1-7.6c0.1-7.1,5-12.3,12.2-13c1.8-0.2,3.7-0.2,5.5-0.2c30.5,0,61,0,91.5,0c13.4,0,19,5.7,19,19.2
		c0,13.7,0.1,27.3,0,41C448,180.2,449.5,189.5,444.9,198z M390.5,151.9c-2.6,0.1-4.3,1.4-4.4,3.9c-0.1,2.4,1.2,4.1,3.8,4.3
		c2.6,0.1,4.1-1.2,4.2-3.8C394.3,153.7,392.9,152.4,390.5,151.9z"/>
</g>
<path class="st16" d="M185,416"/>
<path class="st0" d="M257.3,299.6c0,0,3.8,4.9,5.4,8.5c1.3,2.9,2.8,9.4,0.1,13.1S185,416,185,416l-16.3-4.7l-1.9-0.3l-1.5-0.2
	l-1-0.2l-0.6-0.4l-0.5-0.8l-0.2-0.9V408c0,0,41-73,53-85"/>
<path class="st0" d="M228.6,164.1l10.9-21.2L260,164c0,0,0.9,0.7,2-0.6c1-1.4,27-38.4,27-38.4l1.3-1.5l0.7-0.5c0,0,3.8-0.7,5.9,1.7
	l4.1,0.3l-7.8,14l-5.8,10.5l-4.4,7.9l-2.5,4.4l-4.4,7.9l-2.4,4.4l-2.2,3.9l-2.3,4.1l-1.7,3.1l-0.8,1.6l-0.5,1.1l-0.8,1.9L265,191
	l-3.9-0.2L260,190l-2-1h-3l-3.2,0.2L251,189L228.6,164.1z"/>
<path class="st0" d="M251,189c0,0,4,5,10,2s6-4,6-4"/>
<path class="st0" d="M223.2,181.5l26.8,7.7l3.3,2l1.7,6.8l-43-1l-21-2.8c0,0-36-10.2-46-29.2l16-10.8
	C161,154.2,204.4,178.8,223.2,181.5z"/>
</svg>
